<svg xmlns="http://www.w3.org/2000/svg" viewBox="0 0 25 25"><defs><style>.a{fill:#fff;}.b{fill:#ffc700;}</style></defs><path class="a" d="M317.37,402.42a9,9,0,0,0-1.36-4.05,5.57,5.57,0,0,0-4.25-2.54,2.91,2.91,0,0,0-2,.33c-.33.2-.68.38-1,.56a8.12,8.12,0,0,1-3.95,1v1.46a10,10,0,0,0,4.93-1.21c.37-.2.73-.41,1.11-.59a.82.82,0,0,1,.41-.08,3.85,3.85,0,0,1,3.24,1.85,7.83,7.83,0,0,1,1.11,3.33,16,16,0,0,1,.13,1.95c0,1.72-1.25,2.81-3.31,2.83-2.48,0-5,0-7.44,0h-.18v1.46h8.06a1.06,1.06,0,0,1,.19,0c2.6-.24,4.4-1.86,4.43-4A16.22,16.22,0,0,0,317.37,402.42Z" transform="translate(-292.49 -383.71)"/><path class="a" d="M304.81,385.17c3,0,5.47,2,5.46,4.56s-2.43,4.56-5.46,4.55v1.47h0c4,0,7.22-2.71,7.21-6s-3.22-6-7.22-6h0v1.46Z" transform="translate(-292.49 -383.71)"/><path class="b" d="M297.85,407.24a4.71,4.71,0,0,1-2.11-.41,2.39,2.39,0,0,1-1.48-2.14,10.57,10.57,0,0,1,.87-4.91,4.76,4.76,0,0,1,1.25-1.67,3.93,3.93,0,0,1,2.47-.85.63.63,0,0,1,.32.1c.66.34,1.29.72,2,1a10.15,10.15,0,0,0,3.66.8v-1.47a8.11,8.11,0,0,1-3.57-1c-.43-.22-.85-.47-1.29-.67a2.59,2.59,0,0,0-.9-.26,6.46,6.46,0,0,0-2.72.55,5.55,5.55,0,0,0-2.78,2.79,11.35,11.35,0,0,0-1,5.65c.09,1.86,1.43,3.22,3.55,3.74.35.08.7.12,1.05.19h7.7v-1.47Z" transform="translate(-292.49 -383.71)"/><path class="b" d="M297.58,389.74c0,3.33,3.27,6,7.23,6v-1.47h0c-3,0-5.47-2-5.47-4.56s2.43-4.55,5.47-4.55v-1.46C300.8,383.7,297.56,386.41,297.58,389.74Z" transform="translate(-292.49 -383.71)"/></svg>