<?xml version="1.0" encoding="utf-8"?>
<!-- Generator: Adobe Illustrator 24.1.2, SVG Export Plug-In . SVG Version: 6.00 Build 0)  -->
<svg version="1.1" id="Слой_1" xmlns="http://www.w3.org/2000/svg" xmlns:xlink="http://www.w3.org/1999/xlink" x="0px" y="0px"
	 viewBox="0 0 612 792" style="enable-background:new 0 0 612 792;" xml:space="preserve">
<style type="text/css">
	.st0{fill:#FFFFFF;}
	.st1{fill:#FFC700;}
</style>
<path class="st0" d="M473.8,497.9c-2.26-23.15-7.33-45.61-18.6-66.3c-12.63-23.17-31.35-37.69-57.87-41.59
	c-9.71-1.43-18.71-0.66-26.89,5.47c-4.46,3.34-9.3,6.18-14.04,9.12c-17.96,11.12-35.93,16.4-53.9,15.84v23.99
	c22.83,0.63,45.25-6.14,67.21-19.91c5.07-3.18,10.01-6.57,15.16-9.6c1.59-0.93,3.72-1.47,5.55-1.36
	c20.8,1.15,34.61,12.58,44.14,30.25c9.19,17.04,13.12,35.59,15.24,54.55c1.18,10.55,1.61,21.23,1.69,31.86
	c0.23,28.04-17.01,45.95-45.09,46.28c-33.79,0.39-67.59,0.09-101.38,0.09c0,0.02,0,0.04,0,0.06c-0.84,0-1.69,0-2.53,0v23.95
	c36.63,0,73.26,0,109.89,0c0.86-0.26,1.71-0.65,2.6-0.75c35.47-3.91,59.95-30.45,60.38-66.11
	C475.51,521.8,474.96,509.79,473.8,497.9z"/>
<path class="st0" d="M302.51,215.76c41.4,0.02,74.56,33.18,74.51,74.52c-0.05,41.37-33.21,74.53-74.52,74.51v23.95
	c0.06,0,0.12,0,0.17,0c54.8-0.47,98.47-44.26,98.3-98.57c-0.17-54.62-43.94-98.35-98.47-98.36c0,0,0,0,0,0L302.51,215.76
	C302.5,215.76,302.5,215.76,302.51,215.76z"/>
<path class="st1" d="M207.64,576.65c-10.11,0-19.92-1.41-28.78-6.64c-13.3-7.86-19.76-20.1-20.12-35.07
	c-0.66-27.39,1.76-54.48,11.8-80.35c3.93-10.12,9.31-19.43,17.02-27.19c9.28-9.35,20.87-13.4,33.79-13.98
	c1.42-0.06,2.99,0.92,4.31,1.72c8.98,5.43,17.55,11.68,26.92,16.3c16.84,8.28,33.48,12.56,49.92,13.01v-23.99
	c-16.22-0.5-32.45-5.75-48.67-15.77c-5.88-3.63-11.5-7.72-17.55-11.02c-3.76-2.04-8.1-4.13-12.21-4.21
	c-13.05-0.25-25.54,2.69-37.18,8.92c-18.86,10.1-30.12,26.62-37.88,45.71c-12.01,29.58-15.47,60.72-14.15,92.31
	c1.27,30.44,19.45,52.74,48.46,61.13c4.67,1.35,9.52,2.07,14.29,3.08c34.96,0,69.92,0,104.89,0v-23.95
	C270.88,576.65,239.26,576.64,207.64,576.65z"/>
<path class="st1" d="M204.03,290.54c0.28,54.45,44.53,98.56,98.47,98.19v-23.95c-0.01,0-0.01,0-0.02,0
	c-41.38-0.03-74.51-33.18-74.5-74.54c0.01-41.41,33.12-74.5,74.52-74.49v-23.95C247.86,191.79,203.75,236.02,204.03,290.54z"/>
</svg>
